<svg xmlns="http://www.w3.org/2000/svg" width="1200" height="560" viewBox="0 0 1200 560">
  <rect width="1200" height="560" fill="#f3efe4"/>
  <g stroke="#d7d0c0" stroke-width="2">
    <path d="M0 100H1200M0 200H1200M0 300H1200M0 400H1200M0 500H1200"/>
    <path d="M100 0V560M300 0V560M500 0V560M700 0V560M900 0V560M1100 0V560"/>
  </g>
  <path d="M130 385 C330 210 545 350 730 190 S1010 115 1090 155" fill="none" stroke="#146b63" stroke-width="14" stroke-linecap="round"/>
  <g fill="#c84b31" stroke="#fff" stroke-width="8">
    <circle cx="130" cy="385" r="25"/><circle cx="535" cy="315" r="25"/><circle cx="1090" cy="155" r="25"/>
  </g>
  <g font-family="sans-serif" font-size="34" font-weight="700" fill="#24312f">
    <text x="78" y="445">上海</text><text x="475" y="375">舟山</text><text x="975" y="215">普陀山</text>
  </g>
  <text x="32" y="535" font-family="sans-serif" font-size="22" fill="#445">Map fixture © OpenStreetMap contributors</text>
</svg>
